<svg version="1" xmlns="http://www.w3.org/2000/svg" width="320" height="252" viewBox="0 0 240.000000 189.000000">
  <path d="M2 2c0 1.1-.4 2-1 2-.7 0-1 31-1 91.1 0 77.6.2 91.3 1.4 92.5 1.2 1.2 14.5 1.4 89.3 1.4 68.8 0 88.3-.3 89.6-1.3 1.6-1.1 1.7-6.8 1.9-71.2l.3-70 25.1-.3c24-.2 25.2-.3 27-2.3 1.7-1.9 1.9-4.1 2.2-18.8.3-14.4.1-17.4-1.5-20.9L233.5 0h-76.7C88.5 0 80 .2 80 1.5c0 .9-.7 1.8-1.5 2.1-1.3.5-1.5 3.7-1.5 19.9 0 16.7.2 19.4 1.7 20.6 1.2 1.1 7.5 1.5 26.7 1.9l25.1.5v101h-80L50 76c-.3-39.3-.9-72.5-1.4-73.8C47.8 0 47.7 0 24.9 0 2.7 0 2 .1 2 2z"/>
</svg>
